<mxfile host="app.diagrams.net" agent="Mozilla/5.0 (Windows NT 10.0; Win64; x64) AppleWebKit/537.36 (KHTML, like Gecko) Chrome/128.0.0.0 Safari/537.36 Edg/128.0.0.0" version="24.7.14">
  <diagram name="Page-1" id="QEtZ0x9c_8Vz3te_OIIZ">
    <mxGraphModel dx="786" dy="475" grid="1" gridSize="10" guides="1" tooltips="1" connect="1" arrows="1" fold="1" page="1" pageScale="1" pageWidth="827" pageHeight="1169" math="0" shadow="0">
      <root>
        <mxCell id="0" />
        <mxCell id="1" parent="0" />
        <mxCell id="FnVn-_BfPekHfP2kr3_9-29" style="edgeStyle=orthogonalEdgeStyle;rounded=0;orthogonalLoop=1;jettySize=auto;html=1;" edge="1" parent="1" source="FnVn-_BfPekHfP2kr3_9-1" target="FnVn-_BfPekHfP2kr3_9-10">
          <mxGeometry relative="1" as="geometry" />
        </mxCell>
        <mxCell id="FnVn-_BfPekHfP2kr3_9-63" style="edgeStyle=orthogonalEdgeStyle;rounded=0;orthogonalLoop=1;jettySize=auto;html=1;entryX=0.5;entryY=0;entryDx=0;entryDy=0;" edge="1" parent="1" source="FnVn-_BfPekHfP2kr3_9-1" target="FnVn-_BfPekHfP2kr3_9-19">
          <mxGeometry relative="1" as="geometry">
            <mxPoint x="420" y="195" as="targetPoint" />
            <Array as="points">
              <mxPoint x="410" y="170" />
              <mxPoint x="410" y="480" />
              <mxPoint x="640" y="480" />
            </Array>
          </mxGeometry>
        </mxCell>
        <mxCell id="FnVn-_BfPekHfP2kr3_9-1" value="CarOwnerProfile" style="swimlane;fontStyle=1;align=center;verticalAlign=top;childLayout=stackLayout;horizontal=1;startSize=26;horizontalStack=0;resizeParent=1;resizeParentMax=0;resizeLast=0;collapsible=1;marginBottom=0;whiteSpace=wrap;html=1;" vertex="1" parent="1">
          <mxGeometry x="40" y="140" width="160" height="110" as="geometry" />
        </mxCell>
        <mxCell id="FnVn-_BfPekHfP2kr3_9-2" value="&lt;div&gt;&lt;span style=&quot;background-color: initial;&quot;&gt;vehicleMake&lt;/span&gt;&lt;br&gt;&lt;/div&gt;&lt;div&gt;carModel&lt;/div&gt;&lt;div&gt;carRegistration&lt;/div&gt;&lt;div&gt;&lt;br&gt;&lt;/div&gt;" style="text;strokeColor=none;fillColor=none;align=left;verticalAlign=top;spacingLeft=4;spacingRight=4;overflow=hidden;rotatable=0;points=[[0,0.5],[1,0.5]];portConstraint=eastwest;whiteSpace=wrap;html=1;" vertex="1" parent="FnVn-_BfPekHfP2kr3_9-1">
          <mxGeometry y="26" width="160" height="74" as="geometry" />
        </mxCell>
        <mxCell id="FnVn-_BfPekHfP2kr3_9-3" value="" style="line;strokeWidth=1;fillColor=none;align=left;verticalAlign=middle;spacingTop=-1;spacingLeft=3;spacingRight=3;rotatable=0;labelPosition=right;points=[];portConstraint=eastwest;strokeColor=inherit;" vertex="1" parent="FnVn-_BfPekHfP2kr3_9-1">
          <mxGeometry y="100" width="160" height="10" as="geometry" />
        </mxCell>
        <mxCell id="FnVn-_BfPekHfP2kr3_9-39" style="edgeStyle=orthogonalEdgeStyle;rounded=0;orthogonalLoop=1;jettySize=auto;html=1;" edge="1" parent="1" source="FnVn-_BfPekHfP2kr3_9-7" target="FnVn-_BfPekHfP2kr3_9-13">
          <mxGeometry relative="1" as="geometry" />
        </mxCell>
        <mxCell id="FnVn-_BfPekHfP2kr3_9-7" value="PassengerProfile" style="swimlane;fontStyle=1;align=center;verticalAlign=top;childLayout=stackLayout;horizontal=1;startSize=26;horizontalStack=0;resizeParent=1;resizeParentMax=0;resizeLast=0;collapsible=1;marginBottom=0;whiteSpace=wrap;html=1;" vertex="1" parent="1">
          <mxGeometry x="560" y="140" width="160" height="108" as="geometry" />
        </mxCell>
        <mxCell id="FnVn-_BfPekHfP2kr3_9-8" value="&lt;div&gt;&lt;span style=&quot;background-color: initial;&quot;&gt;ridePreference&lt;/span&gt;&lt;/div&gt;&lt;div&gt;&lt;br&gt;&lt;/div&gt;" style="text;strokeColor=none;fillColor=none;align=left;verticalAlign=top;spacingLeft=4;spacingRight=4;overflow=hidden;rotatable=0;points=[[0,0.5],[1,0.5]];portConstraint=eastwest;whiteSpace=wrap;html=1;" vertex="1" parent="FnVn-_BfPekHfP2kr3_9-7">
          <mxGeometry y="26" width="160" height="74" as="geometry" />
        </mxCell>
        <mxCell id="FnVn-_BfPekHfP2kr3_9-9" value="" style="line;strokeWidth=1;fillColor=none;align=left;verticalAlign=middle;spacingTop=-1;spacingLeft=3;spacingRight=3;rotatable=0;labelPosition=right;points=[];portConstraint=eastwest;strokeColor=inherit;" vertex="1" parent="FnVn-_BfPekHfP2kr3_9-7">
          <mxGeometry y="100" width="160" height="8" as="geometry" />
        </mxCell>
        <mxCell id="FnVn-_BfPekHfP2kr3_9-51" style="edgeStyle=orthogonalEdgeStyle;rounded=0;orthogonalLoop=1;jettySize=auto;html=1;entryX=0.5;entryY=0;entryDx=0;entryDy=0;" edge="1" parent="1" source="FnVn-_BfPekHfP2kr3_9-10" target="FnVn-_BfPekHfP2kr3_9-16">
          <mxGeometry relative="1" as="geometry" />
        </mxCell>
        <mxCell id="FnVn-_BfPekHfP2kr3_9-10" value="Ride" style="swimlane;fontStyle=1;align=center;verticalAlign=top;childLayout=stackLayout;horizontal=1;startSize=26;horizontalStack=0;resizeParent=1;resizeParentMax=0;resizeLast=0;collapsible=1;marginBottom=0;whiteSpace=wrap;html=1;" vertex="1" parent="1">
          <mxGeometry x="40" y="317" width="160" height="108" as="geometry" />
        </mxCell>
        <mxCell id="FnVn-_BfPekHfP2kr3_9-11" value="&lt;div&gt;timePlan&lt;/div&gt;&lt;div&gt;emptySeats&lt;/div&gt;&lt;div&gt;ridePrice&lt;/div&gt;&lt;div&gt;bookingStatus&lt;/div&gt;" style="text;strokeColor=none;fillColor=none;align=left;verticalAlign=top;spacingLeft=4;spacingRight=4;overflow=hidden;rotatable=0;points=[[0,0.5],[1,0.5]];portConstraint=eastwest;whiteSpace=wrap;html=1;" vertex="1" parent="FnVn-_BfPekHfP2kr3_9-10">
          <mxGeometry y="26" width="160" height="74" as="geometry" />
        </mxCell>
        <mxCell id="FnVn-_BfPekHfP2kr3_9-12" value="" style="line;strokeWidth=1;fillColor=none;align=left;verticalAlign=middle;spacingTop=-1;spacingLeft=3;spacingRight=3;rotatable=0;labelPosition=right;points=[];portConstraint=eastwest;strokeColor=inherit;" vertex="1" parent="FnVn-_BfPekHfP2kr3_9-10">
          <mxGeometry y="100" width="160" height="8" as="geometry" />
        </mxCell>
        <mxCell id="FnVn-_BfPekHfP2kr3_9-13" value="BookingProcess" style="swimlane;fontStyle=1;align=center;verticalAlign=top;childLayout=stackLayout;horizontal=1;startSize=26;horizontalStack=0;resizeParent=1;resizeParentMax=0;resizeLast=0;collapsible=1;marginBottom=0;whiteSpace=wrap;html=1;" vertex="1" parent="1">
          <mxGeometry x="560" y="317" width="160" height="108" as="geometry" />
        </mxCell>
        <mxCell id="FnVn-_BfPekHfP2kr3_9-14" value="&lt;div&gt;bookingDate&lt;/div&gt;&lt;div&gt;bookingStatus&lt;/div&gt;&lt;div&gt;cancelFee&lt;/div&gt;" style="text;strokeColor=none;fillColor=none;align=left;verticalAlign=top;spacingLeft=4;spacingRight=4;overflow=hidden;rotatable=0;points=[[0,0.5],[1,0.5]];portConstraint=eastwest;whiteSpace=wrap;html=1;" vertex="1" parent="FnVn-_BfPekHfP2kr3_9-13">
          <mxGeometry y="26" width="160" height="74" as="geometry" />
        </mxCell>
        <mxCell id="FnVn-_BfPekHfP2kr3_9-15" value="" style="line;strokeWidth=1;fillColor=none;align=left;verticalAlign=middle;spacingTop=-1;spacingLeft=3;spacingRight=3;rotatable=0;labelPosition=right;points=[];portConstraint=eastwest;strokeColor=inherit;" vertex="1" parent="FnVn-_BfPekHfP2kr3_9-13">
          <mxGeometry y="100" width="160" height="8" as="geometry" />
        </mxCell>
        <mxCell id="FnVn-_BfPekHfP2kr3_9-16" value="PaymentProcess" style="swimlane;fontStyle=1;align=center;verticalAlign=top;childLayout=stackLayout;horizontal=1;startSize=26;horizontalStack=0;resizeParent=1;resizeParentMax=0;resizeLast=0;collapsible=1;marginBottom=0;whiteSpace=wrap;html=1;" vertex="1" parent="1">
          <mxGeometry x="40" y="550" width="160" height="108" as="geometry" />
        </mxCell>
        <mxCell id="FnVn-_BfPekHfP2kr3_9-17" value="&lt;div&gt;&lt;span style=&quot;background-color: initial;&quot;&gt;advancePayment&lt;/span&gt;&lt;/div&gt;&lt;div&gt;payStatus&lt;/div&gt;&lt;div&gt;refundPayment&lt;/div&gt;" style="text;strokeColor=none;fillColor=none;align=left;verticalAlign=top;spacingLeft=4;spacingRight=4;overflow=hidden;rotatable=0;points=[[0,0.5],[1,0.5]];portConstraint=eastwest;whiteSpace=wrap;html=1;" vertex="1" parent="FnVn-_BfPekHfP2kr3_9-16">
          <mxGeometry y="26" width="160" height="74" as="geometry" />
        </mxCell>
        <mxCell id="FnVn-_BfPekHfP2kr3_9-18" value="" style="line;strokeWidth=1;fillColor=none;align=left;verticalAlign=middle;spacingTop=-1;spacingLeft=3;spacingRight=3;rotatable=0;labelPosition=right;points=[];portConstraint=eastwest;strokeColor=inherit;" vertex="1" parent="FnVn-_BfPekHfP2kr3_9-16">
          <mxGeometry y="100" width="160" height="8" as="geometry" />
        </mxCell>
        <mxCell id="FnVn-_BfPekHfP2kr3_9-19" value="ReviewComplaint" style="swimlane;fontStyle=1;align=center;verticalAlign=top;childLayout=stackLayout;horizontal=1;startSize=26;horizontalStack=0;resizeParent=1;resizeParentMax=0;resizeLast=0;collapsible=1;marginBottom=0;whiteSpace=wrap;html=1;" vertex="1" parent="1">
          <mxGeometry x="560" y="550" width="160" height="108" as="geometry" />
        </mxCell>
        <mxCell id="FnVn-_BfPekHfP2kr3_9-20" value="&lt;div&gt;&lt;span style=&quot;background-color: initial;&quot;&gt;complaintInformation&lt;/span&gt;&lt;/div&gt;&lt;div&gt;&lt;span style=&quot;background-color: initial;&quot;&gt;complaintStatus&lt;/span&gt;&lt;br&gt;&lt;/div&gt;&lt;div&gt;complaintAction&lt;br&gt;&lt;/div&gt;" style="text;strokeColor=none;fillColor=none;align=left;verticalAlign=top;spacingLeft=4;spacingRight=4;overflow=hidden;rotatable=0;points=[[0,0.5],[1,0.5]];portConstraint=eastwest;whiteSpace=wrap;html=1;" vertex="1" parent="FnVn-_BfPekHfP2kr3_9-19">
          <mxGeometry y="26" width="160" height="74" as="geometry" />
        </mxCell>
        <mxCell id="FnVn-_BfPekHfP2kr3_9-21" value="" style="line;strokeWidth=1;fillColor=none;align=left;verticalAlign=middle;spacingTop=-1;spacingLeft=3;spacingRight=3;rotatable=0;labelPosition=right;points=[];portConstraint=eastwest;strokeColor=inherit;" vertex="1" parent="FnVn-_BfPekHfP2kr3_9-19">
          <mxGeometry y="100" width="160" height="8" as="geometry" />
        </mxCell>
        <mxCell id="FnVn-_BfPekHfP2kr3_9-55" style="edgeStyle=orthogonalEdgeStyle;rounded=0;orthogonalLoop=1;jettySize=auto;html=1;entryX=1;entryY=0.5;entryDx=0;entryDy=0;" edge="1" parent="1" source="FnVn-_BfPekHfP2kr3_9-22" target="FnVn-_BfPekHfP2kr3_9-2">
          <mxGeometry relative="1" as="geometry">
            <mxPoint x="380" y="200" as="targetPoint" />
            <Array as="points">
              <mxPoint x="370" y="759" />
              <mxPoint x="370" y="203" />
            </Array>
          </mxGeometry>
        </mxCell>
        <mxCell id="FnVn-_BfPekHfP2kr3_9-22" value="ReviewRating" style="swimlane;fontStyle=1;align=center;verticalAlign=top;childLayout=stackLayout;horizontal=1;startSize=26;horizontalStack=0;resizeParent=1;resizeParentMax=0;resizeLast=0;collapsible=1;marginBottom=0;whiteSpace=wrap;html=1;" vertex="1" parent="1">
          <mxGeometry x="30" y="705" width="160" height="108" as="geometry" />
        </mxCell>
        <mxCell id="FnVn-_BfPekHfP2kr3_9-23" value="&lt;div&gt;rateRider&lt;/div&gt;&lt;div&gt;&lt;br&gt;&lt;/div&gt;" style="text;strokeColor=none;fillColor=none;align=left;verticalAlign=top;spacingLeft=4;spacingRight=4;overflow=hidden;rotatable=0;points=[[0,0.5],[1,0.5]];portConstraint=eastwest;whiteSpace=wrap;html=1;" vertex="1" parent="FnVn-_BfPekHfP2kr3_9-22">
          <mxGeometry y="26" width="160" height="74" as="geometry" />
        </mxCell>
        <mxCell id="FnVn-_BfPekHfP2kr3_9-24" value="" style="line;strokeWidth=1;fillColor=none;align=left;verticalAlign=middle;spacingTop=-1;spacingLeft=3;spacingRight=3;rotatable=0;labelPosition=right;points=[];portConstraint=eastwest;strokeColor=inherit;" vertex="1" parent="FnVn-_BfPekHfP2kr3_9-22">
          <mxGeometry y="100" width="160" height="8" as="geometry" />
        </mxCell>
        <mxCell id="FnVn-_BfPekHfP2kr3_9-25" value="SimulationServer" style="swimlane;fontStyle=1;align=center;verticalAlign=top;childLayout=stackLayout;horizontal=1;startSize=26;horizontalStack=0;resizeParent=1;resizeParentMax=0;resizeLast=0;collapsible=1;marginBottom=0;whiteSpace=wrap;html=1;" vertex="1" parent="1">
          <mxGeometry x="560" y="690" width="160" height="108" as="geometry" />
        </mxCell>
        <mxCell id="FnVn-_BfPekHfP2kr3_9-26" value="&lt;div&gt;estimateReduction&lt;/div&gt;" style="text;strokeColor=none;fillColor=none;align=left;verticalAlign=top;spacingLeft=4;spacingRight=4;overflow=hidden;rotatable=0;points=[[0,0.5],[1,0.5]];portConstraint=eastwest;whiteSpace=wrap;html=1;" vertex="1" parent="FnVn-_BfPekHfP2kr3_9-25">
          <mxGeometry y="26" width="160" height="74" as="geometry" />
        </mxCell>
        <mxCell id="FnVn-_BfPekHfP2kr3_9-27" value="" style="line;strokeWidth=1;fillColor=none;align=left;verticalAlign=middle;spacingTop=-1;spacingLeft=3;spacingRight=3;rotatable=0;labelPosition=right;points=[];portConstraint=eastwest;strokeColor=inherit;" vertex="1" parent="FnVn-_BfPekHfP2kr3_9-25">
          <mxGeometry y="100" width="160" height="8" as="geometry" />
        </mxCell>
        <mxCell id="FnVn-_BfPekHfP2kr3_9-30" value="1..*" style="text;html=1;align=center;verticalAlign=middle;whiteSpace=wrap;rounded=0;" vertex="1" parent="1">
          <mxGeometry x="110" y="300" width="60" height="10" as="geometry" />
        </mxCell>
        <mxCell id="FnVn-_BfPekHfP2kr3_9-38" value="1" style="text;html=1;align=center;verticalAlign=middle;whiteSpace=wrap;rounded=0;" vertex="1" parent="1">
          <mxGeometry x="110" y="260" width="60" height="10" as="geometry" />
        </mxCell>
        <mxCell id="FnVn-_BfPekHfP2kr3_9-45" value="1" style="text;html=1;align=center;verticalAlign=middle;whiteSpace=wrap;rounded=0;" vertex="1" parent="1">
          <mxGeometry x="640" y="260" width="60" height="10" as="geometry" />
        </mxCell>
        <mxCell id="FnVn-_BfPekHfP2kr3_9-46" value="1..*" style="text;html=1;align=center;verticalAlign=middle;whiteSpace=wrap;rounded=0;" vertex="1" parent="1">
          <mxGeometry x="640" y="300" width="60" height="10" as="geometry" />
        </mxCell>
        <mxCell id="FnVn-_BfPekHfP2kr3_9-50" value="1..*" style="text;html=1;align=center;verticalAlign=middle;whiteSpace=wrap;rounded=0;" vertex="1" parent="1">
          <mxGeometry x="500" y="366" width="60" height="10" as="geometry" />
        </mxCell>
        <mxCell id="FnVn-_BfPekHfP2kr3_9-52" value="&lt;span style=&quot;color: rgb(0, 0, 0); font-family: Helvetica; font-size: 12px; font-style: normal; font-variant-ligatures: normal; font-variant-caps: normal; font-weight: 400; letter-spacing: normal; orphans: 2; text-align: center; text-indent: 0px; text-transform: none; widows: 2; word-spacing: 0px; -webkit-text-stroke-width: 0px; white-space: normal; background-color: rgb(251, 251, 251); text-decoration-thickness: initial; text-decoration-style: initial; text-decoration-color: initial; display: inline !important; float: none;&quot;&gt;1&lt;/span&gt;" style="text;whiteSpace=wrap;html=1;" vertex="1" parent="1">
          <mxGeometry x="130" y="425" width="40" height="40" as="geometry" />
        </mxCell>
        <mxCell id="FnVn-_BfPekHfP2kr3_9-53" value="1..*" style="text;html=1;align=center;verticalAlign=middle;whiteSpace=wrap;rounded=0;" vertex="1" parent="1">
          <mxGeometry x="120" y="530" width="60" height="10" as="geometry" />
        </mxCell>
        <mxCell id="FnVn-_BfPekHfP2kr3_9-56" style="edgeStyle=orthogonalEdgeStyle;rounded=0;orthogonalLoop=1;jettySize=auto;html=1;entryX=1.032;entryY=0.196;entryDx=0;entryDy=0;entryPerimeter=0;" edge="1" parent="1" source="FnVn-_BfPekHfP2kr3_9-24" target="FnVn-_BfPekHfP2kr3_9-8">
          <mxGeometry relative="1" as="geometry">
            <mxPoint x="801.9047328404018" y="780" as="targetPoint" />
            <Array as="points">
              <mxPoint x="110" y="860" />
              <mxPoint x="810" y="860" />
              <mxPoint x="810" y="181" />
            </Array>
          </mxGeometry>
        </mxCell>
        <mxCell id="FnVn-_BfPekHfP2kr3_9-58" value="1" style="text;html=1;align=center;verticalAlign=middle;whiteSpace=wrap;rounded=0;" vertex="1" parent="1">
          <mxGeometry x="100" y="813" width="60" height="30" as="geometry" />
        </mxCell>
        <mxCell id="FnVn-_BfPekHfP2kr3_9-59" value="0..*" style="text;html=1;align=center;verticalAlign=middle;whiteSpace=wrap;rounded=0;" vertex="1" parent="1">
          <mxGeometry x="720" y="160" width="60" height="10" as="geometry" />
        </mxCell>
        <mxCell id="FnVn-_BfPekHfP2kr3_9-62" value="1" style="text;html=1;align=center;verticalAlign=middle;whiteSpace=wrap;rounded=0;" vertex="1" parent="1">
          <mxGeometry x="490" y="599" width="60" height="10" as="geometry" />
        </mxCell>
        <mxCell id="FnVn-_BfPekHfP2kr3_9-64" value="&lt;span style=&quot;color: rgb(0, 0, 0); font-family: Helvetica; font-size: 12px; font-style: normal; font-variant-ligatures: normal; font-variant-caps: normal; font-weight: 400; letter-spacing: normal; orphans: 2; text-align: center; text-indent: 0px; text-transform: none; widows: 2; word-spacing: 0px; -webkit-text-stroke-width: 0px; white-space: normal; background-color: rgb(251, 251, 251); text-decoration-thickness: initial; text-decoration-style: initial; text-decoration-color: initial; display: inline !important; float: none;&quot;&gt;0..*&lt;/span&gt;" style="text;whiteSpace=wrap;html=1;" vertex="1" parent="1">
          <mxGeometry x="205" y="140" width="50" height="40" as="geometry" />
        </mxCell>
        <mxCell id="FnVn-_BfPekHfP2kr3_9-65" value="1" style="text;html=1;align=center;verticalAlign=middle;whiteSpace=wrap;rounded=0;" vertex="1" parent="1">
          <mxGeometry x="630" y="530" width="60" height="10" as="geometry" />
        </mxCell>
        <mxCell id="FnVn-_BfPekHfP2kr3_9-67" value="1" style="endArrow=open;html=1;endSize=12;startArrow=diamondThin;startSize=14;startFill=1;edgeStyle=orthogonalEdgeStyle;align=left;verticalAlign=bottom;rounded=0;entryX=0;entryY=0.5;entryDx=0;entryDy=0;" edge="1" parent="1">
          <mxGeometry x="-0.9447" y="10" relative="1" as="geometry">
            <mxPoint x="200" y="360" as="sourcePoint" />
            <mxPoint x="560" y="360.0000000000002" as="targetPoint" />
            <mxPoint x="1" as="offset" />
          </mxGeometry>
        </mxCell>
        <mxCell id="FnVn-_BfPekHfP2kr3_9-69" value="" style="endArrow=open;html=1;endSize=12;startArrow=diamondThin;startSize=14;startFill=1;edgeStyle=orthogonalEdgeStyle;align=left;verticalAlign=bottom;rounded=0;movable=1;resizable=1;rotatable=1;deletable=1;editable=1;locked=0;connectable=1;" edge="1" parent="1" target="FnVn-_BfPekHfP2kr3_9-22">
          <mxGeometry x="-0.875" y="41" relative="1" as="geometry">
            <mxPoint x="560" y="194.66" as="sourcePoint" />
            <mxPoint x="110" y="700" as="targetPoint" />
            <Array as="points">
              <mxPoint x="270" y="195" />
              <mxPoint x="270" y="680" />
              <mxPoint x="110" y="680" />
            </Array>
            <mxPoint x="1" as="offset" />
          </mxGeometry>
        </mxCell>
        <mxCell id="FnVn-_BfPekHfP2kr3_9-71" value="&lt;span style=&quot;font-size: 12px; text-wrap: wrap; background-color: rgb(251, 251, 251);&quot;&gt;0..*&lt;/span&gt;" style="edgeLabel;html=1;align=center;verticalAlign=middle;resizable=0;points=[];" vertex="1" connectable="0" parent="FnVn-_BfPekHfP2kr3_9-69">
          <mxGeometry x="-0.8974" y="1" relative="1" as="geometry">
            <mxPoint x="-2" y="17" as="offset" />
          </mxGeometry>
        </mxCell>
        <mxCell id="FnVn-_BfPekHfP2kr3_9-73" value="1" style="text;html=1;align=center;verticalAlign=middle;whiteSpace=wrap;rounded=0;" vertex="1" parent="1">
          <mxGeometry x="130" y="675" width="60" height="30" as="geometry" />
        </mxCell>
        <mxCell id="FnVn-_BfPekHfP2kr3_9-75" style="edgeStyle=orthogonalEdgeStyle;rounded=0;orthogonalLoop=1;jettySize=auto;html=1;entryX=0;entryY=0.5;entryDx=0;entryDy=0;" edge="1" parent="1" source="FnVn-_BfPekHfP2kr3_9-11" target="FnVn-_BfPekHfP2kr3_9-26">
          <mxGeometry relative="1" as="geometry">
            <Array as="points">
              <mxPoint x="440" y="380" />
              <mxPoint x="440" y="753" />
            </Array>
          </mxGeometry>
        </mxCell>
        <mxCell id="FnVn-_BfPekHfP2kr3_9-76" value="1..1" style="text;html=1;align=center;verticalAlign=middle;resizable=0;points=[];autosize=1;strokeColor=none;fillColor=none;" vertex="1" parent="1">
          <mxGeometry x="200" y="358" width="40" height="30" as="geometry" />
        </mxCell>
        <mxCell id="FnVn-_BfPekHfP2kr3_9-77" value="0..*" style="text;html=1;align=center;verticalAlign=middle;resizable=0;points=[];autosize=1;strokeColor=none;fillColor=none;" vertex="1" parent="1">
          <mxGeometry x="510" y="728" width="40" height="30" as="geometry" />
        </mxCell>
        <mxCell id="FnVn-_BfPekHfP2kr3_9-78" style="edgeStyle=orthogonalEdgeStyle;rounded=0;orthogonalLoop=1;jettySize=auto;html=1;entryX=1;entryY=0.5;entryDx=0;entryDy=0;" edge="1" parent="1" source="FnVn-_BfPekHfP2kr3_9-8" target="FnVn-_BfPekHfP2kr3_9-20">
          <mxGeometry relative="1" as="geometry">
            <Array as="points">
              <mxPoint x="780" y="203" />
              <mxPoint x="780" y="613" />
            </Array>
          </mxGeometry>
        </mxCell>
        <mxCell id="FnVn-_BfPekHfP2kr3_9-79" value="0..*" style="text;html=1;align=center;verticalAlign=middle;whiteSpace=wrap;rounded=0;" vertex="1" parent="1">
          <mxGeometry x="720" y="189" width="60" height="10" as="geometry" />
        </mxCell>
        <mxCell id="FnVn-_BfPekHfP2kr3_9-80" value="1" style="text;html=1;align=center;verticalAlign=middle;whiteSpace=wrap;rounded=0;" vertex="1" parent="1">
          <mxGeometry x="720" y="589" width="60" height="10" as="geometry" />
        </mxCell>
        <mxCell id="FnVn-_BfPekHfP2kr3_9-82" value="Profile" style="swimlane;fontStyle=1;align=center;verticalAlign=top;childLayout=stackLayout;horizontal=1;startSize=26;horizontalStack=0;resizeParent=1;resizeParentMax=0;resizeLast=0;collapsible=1;marginBottom=0;whiteSpace=wrap;html=1;" vertex="1" parent="1">
          <mxGeometry x="340" y="20" width="160" height="110" as="geometry" />
        </mxCell>
        <mxCell id="FnVn-_BfPekHfP2kr3_9-83" value="&lt;div&gt;IDCardCopy&lt;/div&gt;&lt;div&gt;profileStatus&lt;/div&gt;" style="text;strokeColor=none;fillColor=none;align=left;verticalAlign=top;spacingLeft=4;spacingRight=4;overflow=hidden;rotatable=0;points=[[0,0.5],[1,0.5]];portConstraint=eastwest;whiteSpace=wrap;html=1;" vertex="1" parent="FnVn-_BfPekHfP2kr3_9-82">
          <mxGeometry y="26" width="160" height="74" as="geometry" />
        </mxCell>
        <mxCell id="FnVn-_BfPekHfP2kr3_9-84" value="" style="line;strokeWidth=1;fillColor=none;align=left;verticalAlign=middle;spacingTop=-1;spacingLeft=3;spacingRight=3;rotatable=0;labelPosition=right;points=[];portConstraint=eastwest;strokeColor=inherit;" vertex="1" parent="FnVn-_BfPekHfP2kr3_9-82">
          <mxGeometry y="100" width="160" height="10" as="geometry" />
        </mxCell>
        <mxCell id="FnVn-_BfPekHfP2kr3_9-87" value="Extends" style="endArrow=block;endSize=16;endFill=0;html=1;rounded=0;entryX=0.5;entryY=0;entryDx=0;entryDy=0;exitX=0.004;exitY=0.414;exitDx=0;exitDy=0;exitPerimeter=0;" edge="1" parent="1" source="FnVn-_BfPekHfP2kr3_9-83" target="FnVn-_BfPekHfP2kr3_9-1">
          <mxGeometry x="-0.2727" width="160" relative="1" as="geometry">
            <mxPoint x="330" y="75" as="sourcePoint" />
            <mxPoint x="110" y="70" as="targetPoint" />
            <Array as="points">
              <mxPoint x="120" y="75" />
            </Array>
            <mxPoint as="offset" />
          </mxGeometry>
        </mxCell>
        <mxCell id="FnVn-_BfPekHfP2kr3_9-91" value="Extends" style="endArrow=block;endSize=16;endFill=0;html=1;rounded=0;entryX=0.5;entryY=0;entryDx=0;entryDy=0;" edge="1" parent="1" target="FnVn-_BfPekHfP2kr3_9-7">
          <mxGeometry x="-0.3333" width="160" relative="1" as="geometry">
            <mxPoint x="500" y="70" as="sourcePoint" />
            <mxPoint x="660" y="70" as="targetPoint" />
            <Array as="points">
              <mxPoint x="640" y="70" />
            </Array>
            <mxPoint as="offset" />
          </mxGeometry>
        </mxCell>
      </root>
    </mxGraphModel>
  </diagram>
</mxfile>
